<svg xmlns="http://www.w3.org/2000/svg" viewBox="0 0 664.14169 283.3544">
  <path fill="#fff" fill-opacity=".2" fill-rule="evenodd" d="M52.124 243.4203h60V0h-60v243.4203zm60 0h60V0h-60v243.4203zm60 0h60V0h-60v243.4203zm60 0h60V0h-60v243.4203zm60 0h60V0h-60v243.4203zm60 0h60V0h-60v243.4203zm60 0h60V0h-60v243.4203zm60 0h60V0h-60v243.4203zm60 0h60V0h-60v243.4203zm60 0h60V0h-60v243.4203z"/>
  <path fill="none" stroke="#000" stroke-width="1.27" stroke-miterlimit="10" d="M112.124 0v244.04528M172.124 0v244.04528M232.124 0v244.04528M292.124 0v244.04528M352.124 0v244.04528M412.124 0v244.04528M472.124 0v244.04528M532.12402 0v244.04528M592.12402 0v244.04528M52.124 0v244.04528M652.12402 0v244.04528m-600.63592.33774h601.25002" stroke-linejoin="round"/>
  <path d="M53.2193 16.1271c2.3299 0 4.329 1.4165 5.1829 3.4355l.064.3145h107.8404l.063-.3145c.854-2.0189 2.853-3.4355 5.183-3.4355 3.1066 0 5.625 2.5185 5.625 5.625 0 3.1066-2.5184 5.625-5.625 5.625-2.33 0-4.329-1.4165-5.183-3.4355l-.063-.3145H58.4662l-.064.3145c-.8539 2.0189-2.853 3.4355-5.1829 3.4355-3.1066 0-5.625-2.5185-5.625-5.625 0-3.1066 2.5184-5.625 5.625-5.625zm179.685 93.8976c2.33 0 4.329 1.4166 5.183 3.4355l.064.3145h49.9903l.064-.3145c.854-2.0189 2.8531-3.4355 5.183-3.4355 3.1066.0001 5.625 2.5185 5.625 5.6251 0 3.1065-2.5184 5.625-5.625 5.6249-2.33 0-4.329-1.4165-5.183-3.4355l-.064-.3145h-49.9903l-.064.3145c-.854 2.0189-2.8531 3.4355-5.183 3.4355-3.1066 0-5.625-2.5185-5.625-5.625 0-3.1066 2.5184-5.625 5.625-5.625zm0 48.8558c2.33 0 4.329 1.4165 5.183 3.4355l.064.3145h348.1083l.064-.3145c.8539-2.0189 2.853-3.4355 5.1829-3.4355 3.1066 0 5.625 2.5185 5.625 5.625 0 3.1066-2.5184 5.625-5.625 5.625-2.3299 0-4.329-1.4165-5.1829-3.4355l-.064-.3145H238.1513l-.064.3145c-.854 2.0188-2.853 3.4355-5.183 3.4355-3.1066 0-5.625-2.5185-5.625-5.625 0-3.1067 2.5184-5.625 5.625-5.625zm178.9964 44.8803c2.33 0 4.329 1.4166 5.183 3.4355l.064.3145 229.0279.0001.064-.3145c.854-2.0189 2.853-3.4355 5.183-3.4355 3.1066 0 5.625 2.5184 5.625 5.625s-2.5184 5.625-5.625 5.625c-2.33 0-4.329-1.4166-5.183-3.4355l-.064-.3145-229.0279-.0001-.064.3146c-.854 2.0188-2.853 3.4354-5.183 3.4354-3.1066 0-5.625-2.5184-5.625-5.625s2.5184-5.625 5.625-5.625z"/>
  <text transform="matrix(.42 0 0 .42 -1.35 31.45)" style="-inkscape-font-specification:Calibri" font-size="72" font-family="Calibri">
    <tspan x="0" y="0">a</tspan>
  </text>
  <text transform="matrix(.42 0 0 .42 13.03 38.53)" style="-inkscape-font-specification:Calibri" font-size="48" font-family="Calibri">
    <tspan x="0" y="0">1</tspan>
  </text>
  <text transform="matrix(.42 0 0 .42 -1.35 78.95)" style="-inkscape-font-specification:Calibri" font-size="72" font-family="Calibri">
    <tspan x="0" y="0">a</tspan>
  </text>
  <text transform="matrix(.42 0 0 .42 13.03 86.03)" style="-inkscape-font-specification:Calibri" font-size="48" font-family="Calibri">
    <tspan x="0" y="0">2</tspan>
  </text>
  <text transform="matrix(.42 0 0 .42 -1.35 126.03)" style="-inkscape-font-specification:Calibri" font-size="72" font-family="Calibri">
    <tspan x="0" y="0">a</tspan>
  </text>
  <text transform="matrix(.42 0 0 .42 13.03 133.12)" style="-inkscape-font-specification:Calibri" font-size="48" font-family="Calibri">
    <tspan x="0" y="0">3</tspan>
  </text>
  <text transform="matrix(.42 0 0 .42 -1.35 173.53)" style="-inkscape-font-specification:Calibri" font-size="72" font-family="Calibri">
    <tspan x="0" y="0">a</tspan>
  </text>
  <text transform="matrix(.42 0 0 .42 13.03 180.61)" style="-inkscape-font-specification:Calibri" font-size="48" font-family="Calibri">
    <tspan x="0" y="0">4</tspan>
  </text>
  <text transform="matrix(.42 0 0 .42 -1.35 220.61)" style="-inkscape-font-specification:Calibri" font-size="72" font-family="Calibri">
    <tspan x="0" y="0">a</tspan>
  </text>
  <text transform="matrix(.42 0 0 .42 13.03 227.69)" style="-inkscape-font-specification:Calibri" font-size="48" font-family="Calibri">
    <tspan x="0" y="0">5</tspan>
  </text>
  <path d="M51.9047 63.7768c2.3298 0 4.329 1.4167 5.1828 3.4355l.064.3145 168.1023.0002.064-.3145c.854-2.019 2.853-3.4355 5.183-3.4355 3.1066 0 5.625 2.5183 5.625 5.625 0 3.1065-2.5184 5.625-5.625 5.625-2.33 0-4.329-1.4167-5.183-3.4356l-.064-.3144-168.1023-.0002-.064.3145c-.8538 2.0189-2.853 3.4355-5.183 3.4355-3.1065 0-5.625-2.5183-5.625-5.625.0002-3.1066 2.5185-5.625 5.6252-5.625z"/>
  <text x="9028.5352" y="8210.5889" style="line-height:125%" font-size="20" font-family="sans-serif" letter-spacing="0" word-spacing="0" transform="translate(-8984.69 -7927.61)">
    <tspan x="9028.5352" y="8210.5889" style="-inkscape-font-specification:Arial" font-size="30" font-family="Arial">0</tspan>
  </text>
  <text x="9089.332" y="8210.7715" style="line-height:125%" font-size="20" font-family="sans-serif" letter-spacing="0" word-spacing="0" transform="translate(-8984.69 -7927.61)">
    <tspan x="9089.332" y="8210.7715" style="-inkscape-font-specification:Arial" font-size="30" font-family="Arial">1</tspan>
  </text>
  <text x="9148.3203" y="8210.7715" style="line-height:125%" font-size="20" font-family="sans-serif" letter-spacing="0" word-spacing="0" transform="translate(-8984.69 -7927.61)">
    <tspan x="9148.3203" y="8210.7715" style="-inkscape-font-specification:Arial" font-size="30" font-family="Arial">2</tspan>
  </text>
  <text x="9207.8047" y="8210.5811" style="line-height:125%" font-size="20" font-family="sans-serif" letter-spacing="0" word-spacing="0" transform="translate(-8984.69 -7927.61)">
    <tspan x="9207.8047" y="8210.5811" style="-inkscape-font-specification:Arial" font-size="30" font-family="Arial">3</tspan>
  </text>
  <text x="9387.1924" y="8210.5889" style="line-height:125%" font-size="20" font-family="sans-serif" letter-spacing="0" word-spacing="0" transform="translate(-8984.69 -7927.61)">
    <tspan x="9387.1924" y="8210.5889" style="-inkscape-font-specification:Arial" font-size="30" font-family="Arial">6</tspan>
  </text>
  <text x="9566.418" y="8210.5889" style="line-height:125%" font-size="20" font-family="sans-serif" letter-spacing="0" word-spacing="0" transform="translate(-8984.69 -7927.61)">
    <tspan x="9566.418" y="8210.5889" style="-inkscape-font-specification:Arial" font-size="30" font-family="Arial">9</tspan>
  </text>
  <text x="9446.8096" y="8210.5889" style="line-height:125%" font-size="20" font-family="sans-serif" letter-spacing="0" word-spacing="0" transform="translate(-8984.69 -7927.61)">
    <tspan x="9446.8096" y="8210.5889" style="-inkscape-font-specification:Arial" font-size="30" font-family="Arial">7</tspan>
  </text>
  <text x="9616.8877" y="8210.5889" style="line-height:125%" font-size="20" font-family="sans-serif" letter-spacing="0" word-spacing="0" transform="translate(-8984.69 -7927.61)">
    <tspan x="9616.8877" y="8210.5889" style="-inkscape-font-specification:Arial" font-size="30" font-family="Arial">10</tspan>
  </text>
  <text x="9506.6611" y="8210.5889" style="line-height:125%" font-size="20" font-family="sans-serif" letter-spacing="0" word-spacing="0" transform="translate(-8984.69 -7927.61)">
    <tspan x="9506.6611" y="8210.5889" style="-inkscape-font-specification:Arial" font-size="30" font-family="Arial">8</tspan>
  </text>
  <text x="9268.0596" y="8210.7275" style="line-height:125%" font-size="20" font-family="sans-serif" letter-spacing="0" word-spacing="0" transform="translate(-8984.69 -7927.61)">
    <tspan x="9268.0596" y="8210.7275" style="-inkscape-font-specification:Arial" font-size="30" font-family="Arial">4</tspan>
  </text>
  <text x="9327.2744" y="8210.3984" style="line-height:125%" font-size="20" font-family="sans-serif" letter-spacing="0" word-spacing="0" transform="translate(-8984.69 -7927.61)">
    <tspan x="9327.2744" y="8210.3984" style="-inkscape-font-specification:Arial" font-size="30" font-family="Arial">5</tspan>
  </text>
</svg>
