<svg xmlns="http://www.w3.org/2000/svg" width="271" height="371" viewBox="0 0 271 371.00001"><defs><marker id="f" orient="auto" overflow="visible"><path fill-rule="evenodd" stroke="#000" stroke-width=".4pt" d="M1.96 0c0 1.104-.896 2-2 2s-2-.896-2-2 .896-2 2-2 2 .896 2 2z"/></marker><marker id="e" orient="auto" overflow="visible"><path fill-rule="evenodd" stroke="#000" stroke-width=".4pt" d="M1.96 0c0 1.104-.896 2-2 2s-2-.896-2-2 .896-2 2-2 2 .896 2 2z"/></marker><marker id="d" orient="auto" overflow="visible"><path fill-rule="evenodd" stroke="#000" stroke-width=".4pt" d="M1.96 0c0 1.104-.896 2-2 2s-2-.896-2-2 .896-2 2-2 2 .896 2 2z"/></marker><marker id="c" orient="auto" overflow="visible"><path fill-rule="evenodd" stroke="#000" stroke-width=".4pt" d="M1.96 0c0 1.104-.896 2-2 2s-2-.896-2-2 .896-2 2-2 2 .896 2 2z"/></marker><marker id="b" orient="auto" overflow="visible"><path fill-rule="evenodd" stroke="#000" stroke-width=".4pt" d="M1.96 0c0 1.104-.896 2-2 2s-2-.896-2-2 .896-2 2-2 2 .896 2 2z"/></marker><marker id="a" orient="auto" overflow="visible"><path fill-rule="evenodd" stroke="#000" stroke-width=".4pt" d="M1.96 0c0 1.104-.896 2-2 2s-2-.896-2-2 .896-2 2-2 2 .896 2 2z"/></marker><marker id="g" orient="auto" overflow="visible"><path fill-rule="evenodd" stroke="#000" stroke-width=".4pt" d="M1.96 0c0 1.104-.896 2-2 2s-2-.896-2-2 .896-2 2-2 2 .896 2 2z"/></marker><marker id="h" orient="auto" overflow="visible"><path fill-rule="evenodd" stroke="#000" stroke-width=".4pt" d="M1.96 0c0 1.104-.896 2-2 2s-2-.896-2-2 .896-2 2-2 2 .896 2 2z"/></marker></defs><g transform="translate(-79.5 -161.862)"><path fill="none" stroke="#000" stroke-width="1.148" d="M90.074 162.436h39.852v19.852H90.074z" stroke-linecap="round"><desc>A</desc></path><path fill="none" stroke="#000" d="M130 162.362h100v20H130z" stroke-linecap="round"/><text x="100.714" y="177.362" style="line-height:125%;-inkscape-font-specification:'Times New Roman, Normal';text-align:start" font-size="15" font-family="Times New Roman" letter-spacing="0" word-spacing="0"><tspan x="100.714" y="177.362">OP</tspan></text><text x="160" y="176.648" style="line-height:125%;-inkscape-font-specification:'Times New Roman, Normal';text-align:start" font-size="15" font-family="Times New Roman" letter-spacing="0" word-spacing="0"><tspan x="160" y="176.648">Stuff</tspan></text><path fill="none" stroke="#000" d="M160 232.362h50v20h-50z" stroke-linecap="round"/><text x="165.714" y="247.362" style="line-height:125%;-inkscape-font-specification:'Times New Roman, Normal';text-align:start" font-size="15" font-family="Times New Roman" letter-spacing="0" word-spacing="0"><tspan x="165.714" y="247.362">Count</tspan></text><text x="227.143" y="235.934" style="line-height:125%;-inkscape-font-specification:'Times New Roman, Normal';text-align:start" font-size="15" font-family="Times New Roman" letter-spacing="0" word-spacing="0"><tspan x="227.143" y="235.934">000 to 011</tspan><tspan x="227.143" y="254.684">and repeat</tspan></text><path fill="none" stroke="#000" d="M310 232.362h30v20h-30z" stroke-linecap="round"/><text x="312.143" y="246.648" style="line-height:125%;-inkscape-font-specification:'Times New Roman, Normal';text-align:start" font-size="15" font-family="Times New Roman" letter-spacing="0" word-spacing="0"><tspan x="312.143" y="246.648">INC</tspan></text><path fill="none" stroke="#000" stroke-width="1.148" d="M90.788 233.15h39.852v19.853H90.788z" stroke-linecap="round"><desc>A</desc></path><text x="101.429" y="248.076" style="line-height:125%;-inkscape-font-specification:'Times New Roman, Normal';text-align:start" font-size="15" font-family="Times New Roman" letter-spacing="0" word-spacing="0"><tspan x="101.429" y="248.076">OP</tspan></text><path fill="none" stroke="#000" stroke-width="1.125" d="M100 182.403v50.59"/><path fill="none" stroke="#000" stroke-width="1.126" d="M110 182.26v50.734"/><path fill="none" stroke="#000" stroke-width="1.121" d="M120 182.688v50.306"/><path fill="none" stroke="#000" stroke-width="1.076" d="M180.764 232.335v-19.947H319.95v19.947"/><path fill="none" stroke="#000" d="M170 232.362v-30h160v30m-150 20v20h140v-20"/><path fill="none" stroke="#000" d="M330 252.362v30H170v-30m-50 0v120m-10-120v130m-10-130v140"/><path fill="none" stroke="#000" stroke-width="2.062" d="M210.66 294.677v34.302s9.582-.027 18.622.1c5.123.07 10.153-3.227 12.55-8.06 2.483-5.005 2.294-12.395-.24-17.36-2.41-4.73-7.252-8.134-12.31-8.064-9.04.126-19.063.052-19.063.052"/><circle cx="205.518" cy="323.041" r="3.884" fill="none" stroke="#000" stroke-width="2" stroke-linecap="round"/><circle cx="205.244" cy="302.326" r="3.884" fill="none" stroke="#000" stroke-width="2" stroke-linecap="round"/><path fill="none" stroke="#000" stroke-width="2.062" d="M210.66 335.39v34.303s9.582-.023 18.622.102c5.123.072 10.153-3.226 12.55-8.06 2.483-5.004 2.294-12.394-.24-17.362-2.41-4.73-7.252-8.13-12.31-8.06-9.04.125-19.063.05-19.063.05"/><circle cx="205.518" cy="363.755" r="3.884" fill="none" stroke="#000" stroke-width="2" stroke-linecap="round"/><circle cx="205.244" cy="343.041" r="3.884" fill="none" stroke="#000" stroke-width="2" stroke-linecap="round"/><path fill="none" stroke="#000" stroke-width="2" d="M211.028 406.782v22.745s6.353-.015 12.347.068c3.397.047 6.732-2.14 8.322-5.345 1.646-3.317 1.52-8.218-.16-11.512-1.598-3.136-4.808-5.39-8.162-5.345-5.994.084-12.64.034-12.64.034"/><circle cx="206.232" cy="422.326" r="3.884" fill="none" stroke="#000" stroke-width="2" stroke-linecap="round"/><circle cx="205.958" cy="412.326" r="3.884" fill="none" stroke="#000" stroke-width="2" stroke-linecap="round"/><path fill="none" stroke="#000" stroke-width="2" d="M211.028 436.068v22.745s6.353-.016 12.347.068c3.397.05 6.732-2.14 8.322-5.342 1.646-3.318 1.52-8.218-.16-11.512-1.598-3.136-4.808-5.392-8.162-5.345-5.994.084-12.64.034-12.64.034"/><circle cx="206.232" cy="451.612" r="3.884" fill="none" stroke="#000" stroke-width="2" stroke-linecap="round"/><path fill="none" stroke="#000" stroke-width="2" d="M211.028 466.068v22.745s6.353-.016 12.347.068c3.397.05 6.732-2.14 8.322-5.342 1.646-3.318 1.52-8.218-.16-11.512-1.598-3.136-4.808-5.392-8.162-5.345-5.994.084-12.64.034-12.64.034"/><circle cx="205.958" cy="471.612" r="3.884" fill="none" stroke="#000" stroke-width="2" stroke-linecap="round"/><path fill="none" stroke="#000" stroke-width="2" d="M211.028 496.782v22.745s6.353-.015 12.347.068c3.397.047 6.732-2.14 8.322-5.345 1.646-3.317 1.52-8.218-.16-11.512-1.598-3.136-4.808-5.39-8.162-5.345-5.994.084-12.64.034-12.64.034"/><path fill="none" stroke="#000" stroke-width="1.004" d="M120.018 302.362h80.613" marker-start="url(#a)"/><path fill="none" stroke="#000" d="M110 312.362h100" marker-start="url(#b)"/><path fill="none" stroke="#000" stroke-width="1.008" d="M100.037 322.362H201.64" marker-start="url(#c)"/><path fill="none" stroke="#000" stroke-width="1.008" d="M120.035 342.362h81.228" marker-start="url(#d)"/><path fill="none" stroke="#000" d="M110 352.362h100" marker-start="url(#e)"/><path fill="none" stroke="#000" stroke-width="1.006" d="M100.025 362.362h101.11" marker-start="url(#f)"/><path fill="none" stroke="#000" stroke-miterlimit="3" d="M170 282.362v230" marker-start="url(#g)"/><path fill="none" stroke="#000" d="M180 272.362v230h30" marker-start="url(#h)"/><path fill="none" stroke="#000" d="M170 512.362h40"/><path fill="none" stroke="#000" stroke-width="1.052" d="M180 472.362h22.147"/><path fill="none" stroke="#000" d="M170 482.362h40m-30-40h30"/><path fill="none" stroke="#000" stroke-width="1.031" d="M170 452.362h31.894"/><path fill="none" stroke="#000" stroke-width="1.034" d="M180 412.362h21.39"/><path fill="none" stroke="#000" stroke-width="1.031" d="M170 422.362h31.894"/><text x="215.893" y="422.541" style="line-height:125%;-inkscape-font-specification:'Times New Roman, Normal';text-align:start" font-size="15" font-family="Times New Roman" letter-spacing="0" word-spacing="0"><tspan x="215.893" y="422.541">A</tspan></text><text x="216.607" y="452.541" style="line-height:125%;-inkscape-font-specification:'Times New Roman, Normal';text-align:start" font-size="15" font-family="Times New Roman" letter-spacing="0" word-spacing="0"><tspan x="216.607" y="452.541">B</tspan></text><text x="216.607" y="482.362" style="line-height:125%;-inkscape-font-specification:'Times New Roman, Normal';text-align:start" font-size="15" font-family="Times New Roman" letter-spacing="0" word-spacing="0"><tspan x="216.607" y="482.362">C</tspan></text><text x="217.321" y="512.184" style="line-height:125%;-inkscape-font-specification:'Times New Roman, Normal';text-align:start" font-size="15" font-family="Times New Roman" letter-spacing="0" word-spacing="0"><tspan x="217.321" y="512.184">D</tspan></text><text x="249.286" y="317.005" style="line-height:125%;-inkscape-font-specification:'Times New Roman, Normal';text-align:start" font-size="15" font-family="Times New Roman" letter-spacing="0" word-spacing="0"><tspan x="249.286" y="317.005">Const 00001</tspan></text><text x="249.286" y="357.362" style="line-height:125%;-inkscape-font-specification:'Times New Roman, Normal';text-align:start" font-size="15" font-family="Times New Roman" letter-spacing="0" word-spacing="0"><tspan x="249.286" y="357.362">Const 00010</tspan></text><path fill="none" stroke="#000" stroke-miterlimit="3" d="M80 192.362h270v340H80z"/></g></svg>